<?xml version="1.0" encoding="utf-8"?>
<!-- Generator: Adobe Illustrator 26.2.1, SVG Export Plug-In . SVG Version: 6.00 Build 0)  -->
<svg version="1.1" id="Layer_1" xmlns="http://www.w3.org/2000/svg" xmlns:xlink="http://www.w3.org/1999/xlink" x="0px" y="0px"
	 viewBox="0 0 282 84.6" style="enable-background:new 0 0 282 84.6;" xml:space="preserve">
<style type="text/css">
	.st0{fill:#250E47;}
	.st1{fill:#FFFFFF;}
</style>
<g id="a">
</g>
<g id="b">
	<g id="c">
		<g>
			<path class="st0" d="M281.2,18.9c-0.8-1.4-2.2-2.4-3.7-2.7c-4.6-1-9.2-2-13.8-2.9c-1.5-0.3-3-0.4-4.4-0.4c-1.7,0-3.4,0.2-4.9,0.7
				c-0.3,0.1-0.6,0.2-0.9,0.3c-0.1-0.2-0.2-0.5-0.4-0.7c-0.9-1.3-2.3-2.2-3.8-2.5c-4.9-0.9-9.8-1.7-14.6-2.4
				c-1.2-0.2-2.3-0.3-3.4-0.3c-2.1,0-4,0.3-5.8,1c-1.4,0.5-2.8,1.2-4,2.1c-0.6-0.9-1.4-1.8-2.2-2.5c-2.7-2.4-6.2-3.9-10.5-4.3
				l-3.3-0.3c-0.8-0.1-1.7-0.1-2.4-0.1c-2.4,0-4.7,0.4-6.8,1.2c-1.6,0.7-3.1,1.5-4.4,2.7c-0.9-1-2-1.8-3.2-2.6
				c-2.5-1.5-5.5-2.4-8.9-2.6c-5.2-0.3-10.5-0.6-15.9-0.8c-1.4,0-2.8,0.5-3.9,1.5c-1.1,1-1.8,2.5-1.8,4l-1.7,44.2
				c-0.1,1.5,0.5,3,1.5,4.1c1,1.1,2.5,1.8,4,1.8c4.7,0.2,9.6,0.4,14.3,0.7c0.5,0,1,0,1.4,0c2.7,0,5.1-0.5,7.3-1.5c1-0.5,2-1,2.9-1.8
				c0.9,1.1,2,2.1,3.3,3c2.3,1.6,5.1,2.6,8.4,2.9l3,0.3c0.8,0.1,1.6,0.1,2.4,0.1c2.3,0,4.5-0.4,6.4-1.2c1.5-0.6,2.9-1.4,4.1-2.4
				c0.8,1,1.7,1.8,2.7,2.6c2.2,1.7,5,2.8,8.3,3.3c4.4,0.7,8.9,1.4,13.4,2.2c0.3,0.1,0.7,0.1,1,0.1c0.1,0,0.2,0,0.3,0
				c0.4,0.2,0.7,0.3,1.1,0.3c4.3,0.8,8.6,1.6,12.9,2.5c1.4,0.3,2.8,0.4,4.1,0.4c1.7,0,3.3-0.2,4.8-0.7c2.8-0.8,5.2-2.3,7-4.4
				c1.9-2,3.2-4.5,3.8-7.3l1.8-8.2c0.4-1.8-0.1-3.8-1.4-5.2c-0.1-0.1-0.2-0.2-0.2-0.3c0.9-0.7,1.6-1.7,1.9-2.9
				c1.6-5.5,3.2-11,4.9-16.5C282.2,22,282,20.3,281.2,18.9L281.2,18.9z"/>
			<path class="st0" d="M176.2,66.7c0-0.1,0-0.2,0-0.3c0-1-0.4-1.9-1-2.6c-0.4-0.5-1.1-1.2-2.1-2c-0.8-0.7-1.7-1.1-2.7-1.1
				c-0.2,0-0.3,0-0.5,0c-0.8,0.1-1.9,0.5-2.8,1.7c-0.2-0.2-0.5-0.4-0.8-0.6c-0.5-0.3-1-0.6-1.3-0.8c-0.6-0.3-1.2-0.5-1.8-0.5
				c-1.2,0-2.3,0.6-2.9,1.5c-0.4,0.5-0.7,0.9-1.1,1.3c-0.6-0.6-1.3-1.2-2.1-1.7c-0.7-0.5-1.4-0.8-2.2-0.8c-0.4,0-0.8,0.1-1.1,0.2
				c-0.8,0.3-1.4,0.8-1.9,1.5c-0.4-0.6-1-1.1-1.7-1.7c-0.1,0-0.2-0.1-0.2-0.1c0,0,0,0,0,0c-0.3-1.6-1-3-2.1-4.2
				c0.9-0.3,1.8-0.7,2.5-1.4c1.1-1.1,1.7-2.5,1.7-4l0.5-44.2c0-1.5-0.6-3-1.6-4.1s-2.5-1.7-4-1.7c-2.5,0-5.1,0-7.6,0
				c-2.9,0-5.8,0-8.7,0.1c-3.4,0-6.5,0.8-9,2.2c-0.4,0.2-0.9,0.5-1.3,0.8c-0.2-0.4-0.5-0.7-0.9-1c-1.1-1-2.4-1.5-4.1-1.5h0
				c-3.3,0.1-6.6,0.3-9.9,0.5c-1.5,0.1-2.9,0.8-4,1.9c0,0-0.1,0.1-0.1,0.1c-1-1-2.4-1.5-3.9-1.5c-0.1,0-0.3,0-0.4,0
				c-3.3,0.2-6.6,0.5-9.9,0.7c-1.9,0.2-3.5,1.2-4.4,2.7c-0.2-0.1-0.4-0.2-0.6-0.3c-2-0.8-4.3-1.2-6.8-1.2c-0.8,0-1.6,0-2.5,0.1
				C68.1,5,63.3,5.6,58.6,6.2c-1.5,0.2-2.9,1-3.8,2.2s-1.3,2.7-1.2,4.2L56.4,34c-0.5,0.1-0.9,0.2-1.4,0.3l-3.2-21.5
				C51.4,10.1,48.9,8,46.1,8c-0.3,0-0.6,0-0.9,0.1c-3.3,0.5-6.5,1-9.8,1.6c-0.5,0.1-1,0.3-1.5,0.5c-0.2,0-0.5-0.1-0.7-0.1
				c-0.3,0-0.6,0-1,0.1c-5.3,0.9-10.8,1.9-16.1,3c-3.4,0.7-6.2,1.9-8.5,3.8c-2.3,1.9-4,4.3-5,7c-0.9,2.7-1.1,5.5-0.5,8.4l1.7,7.9
				c-0.9,0.7-1.7,1.6-2.1,2.7c-0.7,1.8-0.4,3.9,0.8,5.5C4,50.2,5.4,52.1,6.9,54l2.5,11.6c0.6,2.6,2.9,4.5,5.6,4.5
				c0.4,0,0.8,0,1.2-0.1c3-0.7,5.9-1.3,8.9-1.9c1.4-0.3,2.6-1.1,3.5-2.2c0.9,0.6,1.9,0.8,3,0.8c0.4,0,0.7,0,1.1-0.1
				c3-0.6,6-1.1,9-1.6c0.5-0.1,1-0.2,1.4-0.4c0.2,0,0.4,0,0.6,0c0.3,0,0.6,0,1-0.1c7-1.2,14-2.2,20.7-3.1c0.1,0,0.4,0,0.4,0
				c3-0.4,6-0.8,9-1.1c1.5-0.2,2.9-0.9,3.9-2.1c0.9-1.2,1.4-2.7,1.2-4.2L79,47.7c1.5-1.3,3.1-2.8,5-4.5c0.2-0.2,0.4-0.3,0.6-0.5
				l0.9,10.7c0.2,3,2.8,5.3,5.7,5.3c0.1,0,0.4,0,0.5,0c3-0.2,6-0.5,9-0.7c1.4-0.1,2.8-0.7,3.8-1.8c1,0.8,2.4,1.3,3.9,1.3h0
				c2.2-0.1,4.3-0.2,6.4-0.3c-1.4,1-1.8,2.4-1.6,3.7c0.1,0.7,0.3,1.5,0.7,2.6c1.1,3.1,3.3,3.4,4.2,3.4c0,0,0.1,0,0.1,0
				c-0.6,0.7-0.9,1.6-0.9,2.5c-0.6,0.8-1.3,1.7-2,2.7c-0.2,0.3-0.4,0.6-0.6,0.9c-0.7-0.3-1.4-0.5-2.2-0.5c0,0-0.2,0-0.3,0
				c-3.7,0.3-5.1,2.7-5.3,4.8c0,0.1,0,0.2,0,0.3c0.1,3.1,2.1,5.1,5.1,5.1c0.1,0,0.3,0,0.4,0c1-0.1,1.8-0.4,2.6-0.8
				c0.3,0.4,0.6,0.8,1,1.2c1,1.2,2.1,1.3,2.7,1.3c1.1,0,2.1-0.5,2.7-1.4c0.3-0.4,0.6-1,0.7-1.5c0.1-0.4,0.1-0.9,0-1.3
				c0-0.2,0.1-0.3,0.2-0.6c0.4-0.7,0.8-1.5,1.4-2.3c0.2,0.2,0.3,0.5,0.5,0.7c2.2,3.1,4.7,4.7,7.6,4.7c0.4,0,0.7,0,1.1-0.1
				c0.1,0,0.1,0,0.2,0c3.1-0.5,5.2-1.7,6.7-3.1c0,0,0.1,0.1,0.1,0.2l0.2,0.2c0.8,1.2,1.9,2.1,3.2,2.4c0.1,0,0.2,0.1,0.3,0.1
				c0.3,0.1,0.6,0.1,0.9,0.1c1.2,0,2.2-0.4,3.1-1.3c0.1-0.1,0.2-0.2,0.2-0.3c0.1-0.1,0.1-0.1,0.2-0.2c0.4,0.4,0.8,0.7,1.2,0.9
				c0.7,0.4,1.6,0.7,2.5,0.8c0.1,0,0.3,0,0.4,0c0.1,0,0.1,0,0.2,0c1-0.1,1.9-0.4,2.7-1.1c0,0,0.1,0.1,0.1,0.1
				c0.1,0.1,0.1,0.1,0.2,0.2c0.6,0.5,1.3,0.8,2.1,1c0.2,0,0.4,0,0.5,0c0.2,0,0.4,0,0.6-0.1c1.4-0.3,2.4-1.3,2.7-2.7
				c0.1-0.2,0.2-0.3,0.4-0.5l0-0.1c0.3,0.5,0.7,0.9,1.2,1.2l0.8,0.6c0.8,0.6,1.9,1.4,3.3,1.4c0.9,0,2.4-0.3,3.8-1.9
				c1.2-1.4,3.4-4.4,6.6-9.1c0.1-0.1,0.1-0.2,0.2-0.3c0.6-1.1,0.6-2.3,0.1-3.4C177.3,67.5,176.8,67,176.2,66.7L176.2,66.7z
				 M134.6,73.9c-0.4-0.2-0.9-0.3-1.3-0.6c0.6-0.1,1.3-0.2,1.9-0.3C134.9,73.5,134.7,73.8,134.6,73.9z M137.8,62.6
				c-0.7,0.2-1.6,0.5-2.5,0.7c0.1-0.2,0.1-0.4,0.2-0.6C136.3,62.6,137.1,62.6,137.8,62.6L137.8,62.6z"/>
		</g>
		<g>
			<g>
				<path class="st1" d="M143,0.1C140.5,0,138,0,135.4,0c-2.9,0-5.8,0-8.7,0.1c-3,0-5.7,0.7-7.9,1.9c-1.6,0.9-2.9,2-3.9,3.2
					l-0.1-1.6c0-0.9-0.4-1.7-1-2.3c-0.6-0.6-1.4-0.9-2.2-0.9c0,0-0.1,0-0.1,0c-3.3,0.1-6.6,0.3-9.8,0.4c-1.8,0.1-3.2,1.6-3.1,3.4
					l1.1,20.2c-0.5,0-1,0.1-1.5,0.1L96.8,4.4c-0.1-1.7-1.6-3-3.2-3c-0.1,0-0.2,0-0.2,0c-3.3,0.2-6.6,0.5-9.9,0.7
					c-1.8,0.2-3.1,1.7-3,3.5l0.1,0.6c-1-0.7-2-1.3-3.2-1.8c-1.7-0.7-3.7-1.1-5.8-1.1c-0.7,0-1.5,0-2.2,0.1C64.5,4,59.7,4.5,55,5.1
					c-0.9,0.1-1.6,0.6-2.2,1.2S52,7.9,52.2,8.8l3,23.7c-1.9,0.4-3.8,0.8-5.6,1.2c-0.2,0-0.4,0.1-0.5,0.2L45.4,9.7
					c-0.2-1.6-1.6-2.8-3.2-2.8c-0.2,0-0.3,0-0.5,0c-3.3,0.5-6.5,1-9.8,1.5c-0.6,0.1-1.1,0.4-1.5,0.7C30.1,9.1,29.7,9,29.3,9
					c-0.2,0-0.4,0-0.5,0.1C23.4,10,18,11,12.7,12c-3,0.6-5.5,1.7-7.4,3.3c-2,1.6-3.4,3.6-4.2,5.9c-0.8,2.2-0.9,4.6-0.4,7l2.2,9.9
					c-0.1,0-0.2,0-0.2,0.1c-1.1,0.2-2,1-2.3,2.1S0,42.4,0.7,43.3c1.5,2,3.1,4.1,4.6,6.1l2.7,12.2c0.3,1.5,1.7,2.6,3.2,2.6
					c0.2,0,0.5,0,0.7-0.1c3-0.7,6-1.3,8.9-1.9c0.9-0.2,1.6-0.7,2.1-1.4s0.6-1.6,0.5-2.5l-2.1-10.3c0.5-0.1,0.9-0.1,1.4-0.2l1.9,10.2
					c0.2,0.8,0.6,1.6,1.4,2.1c0.5,0.4,1.2,0.6,1.8,0.6c0.2,0,0.4,0,0.6-0.1c3-0.6,6-1.1,9-1.6c0.5-0.1,1-0.3,1.4-0.6
					c0.3,0.1,0.7,0.2,1,0.2c0.2,0,0.4,0,0.5,0c7-1.2,14.1-2.2,21.1-3.1c0,0,0,0,0,0c0,0,0,0,0.1,0c3-0.4,6-0.8,9.1-1.1
					c0.9-0.1,1.7-0.5,2.2-1.2s0.8-1.5,0.7-2.4l-0.9-7.6c1.7-1.5,3.7-3.2,6-5.3c1.2-1,2.2-2,3.2-3c0.4,0.8,0.9,1.6,1.4,2.4l1,12.4
					c0.1,1.7,1.6,3,3.2,3c0.1,0,0.2,0,0.3,0c3-0.2,6.1-0.5,9.1-0.7c0.9-0.1,1.7-0.5,2.2-1.1s0.9-1.5,0.8-2.4L99,38.1
					c0.5,0,0.9,0,1.4,0l0.6,10.4c0.1,1.7,1.5,3.1,3.3,3.1c0.1,0,0.1,0,0.2,0c3-0.2,6-0.3,9.1-0.4c0.6,0,1.1-0.2,1.5-0.5
					c0.4,0.2,0.9,0.4,1.5,0.4c0,0,0.1,0,0.1,0c3-0.1,6.1-0.2,9.1-0.2c0.9,0,1.7-0.4,2.3-1c0.6-0.6,0.9-1.5,0.9-2.3l-0.2-10.5
					c0.4,0,0.9,0,1.3,0.1l0,10.4c0,0.9,0.4,1.7,1,2.3s1.4,1,2.3,1h2.1c2.3,0,4.6,0,7,0h0c0.9,0,1.7-0.3,2.3-0.9c0.6-0.6,1-1.4,1-2.3
					l0.5-44.2C146.3,1.6,144.9,0.1,143,0.1L143,0.1z"/>
				<path class="st1" d="M275.1,16.7c-0.5-0.8-1.2-1.3-2.1-1.5c-4.5-1-9.1-2-13.7-2.9c-1.3-0.3-2.6-0.4-3.9-0.4
					c-1.5,0-2.9,0.2-4.2,0.6c-1.4,0.4-2.7,1-3.8,1.8c0.1-0.2,0.1-0.5,0.2-0.7c0.2-0.9,0.1-1.8-0.4-2.6c-0.5-0.8-1.3-1.3-2.2-1.4
					c-4.9-0.9-9.8-1.7-14.6-2.4c-1.1-0.2-2.1-0.2-3-0.2c-1.8,0-3.5,0.3-5,0.8c-2.2,0.8-4,2-5.4,3.6c-0.7-1.7-1.8-3.2-3.3-4.6
					c-2.3-2.1-5.4-3.3-9.1-3.7c-1.1-0.1-2.2-0.2-3.3-0.4c-0.7-0.1-1.5-0.1-2.2-0.1c-2.1,0-4.1,0.4-5.8,1.1c-2.3,0.9-4.1,2.3-5.5,4.1
					c-1.1-1.7-2.5-3.1-4.3-4.2c-2.1-1.3-4.8-2.1-7.7-2.3c-5.2-0.3-10.4-0.6-15.7-0.8c0,0-0.1,0-0.1,0c-0.8,0-1.6,0.3-2.2,0.9
					c-0.6,0.6-1,1.4-1,2.3l-1.7,44.2c0,0.9,0.3,1.7,0.9,2.3c0.6,0.6,1.4,1,2.3,1c4.8,0.2,9.6,0.4,14.4,0.7c0.4,0,0.9,0,1.3,0
					c2.3,0,4.4-0.4,6.3-1.3c1.8-0.8,3.1-2,4.4-3.3c1,1.9,2.4,3.5,4.3,4.8c2,1.4,4.4,2.2,7.2,2.5c1,0.1,2,0.2,3.1,0.3
					c0.7,0.1,1.4,0.1,2.1,0.1c2,0,3.9-0.3,5.5-1c2.2-0.9,4-2.3,5.4-4c0.9,1.7,2.2,3.2,3.8,4.5c1.9,1.5,4.3,2.4,7.1,2.8
					c4.5,0.7,9,1.4,13.4,2.2c0.2,0,0.4,0,0.6,0c0.2,0,0.5-0.1,0.7-0.1c0.4,0.2,0.8,0.4,1.2,0.5c4.3,0.8,8.7,1.6,13,2.5
					c1.3,0.3,2.5,0.4,3.6,0.4c1.4,0,2.8-0.2,4-0.6c2.4-0.7,4.4-1.9,5.9-3.7c1.6-1.7,2.7-3.8,3.2-6.2l1.8-8.2c0.2-1-0.1-2.2-0.8-2.9
					c-1.1-1.1-2.1-2.3-3.2-3.4c0.1,0,0.2,0,0.2,0.1c0.3,0.1,0.6,0.1,0.9,0.1c0.5,0,1.1-0.1,1.6-0.4c0.8-0.4,1.3-1.1,1.6-2
					c1.6-5.5,3.2-11,4.9-16.6C275.7,18.4,275.6,17.5,275.1,16.7L275.1,16.7z"/>
			</g>
			<path class="st0" d="M13.3,15.2c5.3-1.1,10.6-2,16-2.9c2.5,14.5,5,29.1,7.5,43.6c-3,0.5-6,1.1-9,1.6c-0.8-4.4-1.7-8.8-2.5-13.3
				c-2.6,0.3-5.2,0.7-7.9,1h0c0.9,4.6,1.8,9.1,2.8,13.7c-3,0.6-6,1.2-9,1.9c-0.9-4.3-1.9-8.6-2.8-12.9c-1.7-2.2-3.3-4.5-5-6.7
				c1.1-0.2,2.3-0.5,3.4-0.8c-0.9-4.4-1.9-8.7-2.8-13.1c-0.4-1.8-0.3-3.6,0.3-5.2s1.7-3.2,3.2-4.4C8.9,16.6,10.9,15.7,13.3,15.2
				L13.3,15.2z M16,38.6c2.6-0.5,5.2-1,7.9-1.5c-1-5.2-2-10.5-2.9-15.7h0c-0.9,0.1-1.8,0.3-2.5,0.4c-2,0.4-3.4,0.9-4.1,1.4
				c-0.8,0.6-1,2.1-0.6,4.3C14.5,31.2,15.2,34.9,16,38.6L16,38.6z"/>
			<path class="st0" d="M57.6,35.3c1.1,5.7,2.2,11.3,3.3,17c-7.1,0.9-14.2,2-21.2,3.1c-2.4-14.5-4.8-29.1-7.2-43.7
				c3.2-0.5,6.5-1.1,9.7-1.5c1.8,12.3,3.7,24.7,5.5,37h0.1c1.3-0.3,2.6-0.6,3.9-0.9c-0.5-3.2-1-6.3-1.5-9.5
				C52.7,36.4,55.2,35.9,57.6,35.3L57.6,35.3z"/>
			<path class="st0" d="M69.6,6.7c2.5-0.3,4.7,0,6.5,0.7s3.3,1.8,4.3,3.3c1.1,1.4,1.7,3.1,1.8,4.9c0.4,4.4,0.8,8.7,1.1,13.1
				c-2,2.2-4.4,4.4-7,6.8c-2.6,2.4-5.1,4.5-7.3,6.4c0.3,3.1,0.7,6.2,1.1,9.3c-3,0.3-6.1,0.7-9.1,1.1C59.1,37.6,57.3,23,55.4,8.4
				C60.1,7.8,64.8,7.2,69.6,6.7L69.6,6.7z M74.3,26c-0.2-1.6-0.3-3.1-0.5-4.7c-0.2-1.8-0.4-3.2-0.6-4.2c-0.2-1-0.5-1.7-1-2.1
				s-1.2-0.6-2.2-0.7c-0.8,0-1.9,0.1-3.2,0.2c-0.3,0-0.6,0.1-0.8,0.1c0.7,5.8,1.3,11.6,1.9,17.3C70.1,30.3,72.2,28.4,74.3,26z"/>
			<path class="st0" d="M101.8,4.2c3.3-0.2,6.5-0.3,9.8-0.5c0.6,14.7,1.1,29.5,1.7,44.2c-3,0.1-6.1,0.2-9.1,0.4
				c-0.2-4.5-0.5-9-0.7-13.5c-2.6,0-5.3,0-7.9,0h0c0.3,4.7,0.6,9.3,0.9,14c-3,0.2-6.1,0.4-9.1,0.7c-0.4-4.4-0.7-8.7-1.1-13.1
				c-1.3-2.5-2.7-4.9-4.1-7.3c1.2-0.1,2.3-0.2,3.5-0.3C85,21,84.3,13.2,83.7,5.4c3.3-0.3,6.5-0.5,9.8-0.7c0.5,7.8,1,15.6,1.6,23.4
				c2.7-0.2,5.3-0.3,8-0.5C102.7,19.8,102.3,12,101.8,4.2z"/>
			<path class="st0" d="M126.8,3.3c5.4-0.1,10.8-0.1,16.2,0c-0.2,14.8-0.4,29.5-0.5,44.2c-3.1,0-6.1,0-9.1,0c0-4.5,0-9-0.1-13.5
				c-2.6-0.2-5.2-0.3-7.9-0.4h0c0.1,4.7,0.2,9.3,0.2,14c-3.1,0-6.1,0.1-9.1,0.2c-0.1-4.4-0.3-8.8-0.4-13.1c-1.2-2.5-2.5-5-3.7-7.5
				c1.2,0,2.3-0.1,3.5-0.1c-0.1-4.5-0.3-8.9-0.4-13.4c-0.1-1.9,0.3-3.6,1.2-5.1c0.9-1.6,2.2-2.8,3.9-3.8
				C122.2,3.8,124.3,3.4,126.8,3.3z M125.2,26.8c2.7,0,5.3-0.1,8-0.1c0-5.3,0-10.6-0.1-16c0,0,0,0,0,0c-0.9,0-1.8-0.1-2.5-0.1
				c-2.1,0-3.5,0.2-4.2,0.6c-0.9,0.5-1.4,1.9-1.3,4.1C125.1,19.2,125.2,23,125.2,26.8L125.2,26.8z"/>
			<path class="st0" d="M186.3,15.4c-0.7,8-1.3,16-2,24c-0.1,1.8-0.7,3.5-1.7,4.9c-1,1.5-2.4,2.6-4.1,3.3c-1.7,0.8-3.7,1.1-6,1
				c-4.8-0.3-9.6-0.5-14.5-0.7c0.6-14.7,1.1-29.5,1.7-44.2c5.2,0.2,10.4,0.5,15.6,0.8c2.5,0.2,4.6,0.8,6.2,1.8s2.9,2.4,3.7,3.9
				C186.2,11.9,186.5,13.6,186.3,15.4L186.3,15.4z M167.6,40.9c0.6,0,1.1,0.1,1.6,0.1c2.2,0.1,3.6,0,4.4-0.4c0.9-0.4,1.4-1.8,1.6-4
				c0.4-6.6,0.9-13.3,1.3-19.9c0.1-2.2-0.2-3.6-1.1-4.1c-0.7-0.5-2.3-0.8-4.6-0.9c-0.5,0-1.1-0.1-1.7-0.1
				C168.7,21.4,168.2,31.2,167.6,40.9L167.6,40.9z"/>
			<path class="st0" d="M214.6,15c0.1,0.3,0.1,0.7,0.1,1.2c0,0.5,0,1-0.1,1.3c-1.1,8.5-2.2,17-3.3,25.6c-0.2,1.8-0.9,3.5-1.9,4.8
				s-2.5,2.4-4.2,3.1c-1.7,0.7-3.7,0.9-6.1,0.7c-1-0.1-2-0.2-3.1-0.3c-2.3-0.2-4.2-0.9-5.8-1.9c-1.6-1-2.7-2.4-3.4-4s-1-3.3-0.9-5.1
				c0.7-8.5,1.4-17,2.2-25.5c0.2-1.9,0.8-3.5,1.8-4.9c1.1-1.4,2.5-2.5,4.3-3.2s4-1,6.5-0.7c1.1,0.1,2.2,0.2,3.3,0.3
				c3.1,0.3,5.5,1.3,7.3,2.9C213.3,10.8,214.3,12.7,214.6,15L214.6,15z M204.5,21.4c0.2-1.9,0.3-3.4,0.3-4.5s-0.2-1.9-0.6-2.3
				c-0.4-0.5-1.2-0.8-2.4-0.9c-1.2-0.1-2,0-2.6,0.4s-0.9,1.1-1.1,2.1s-0.4,2.5-0.6,4.5c-0.5,5.2-1.1,10.5-1.6,15.8
				c-0.2,1.9-0.3,3.4-0.3,4.5c0,1.1,0.2,1.8,0.6,2.3s1.2,0.8,2.3,0.9c1.1,0.1,1.9,0,2.5-0.4s0.9-1.1,1.1-2.1c0.2-1,0.4-2.5,0.6-4.5
				C203.3,31.9,203.9,26.6,204.5,21.4z"/>
			<path class="st0" d="M227.9,40.2c-0.6-2.2-1.2-4.3-1.8-6.5c4.8,0.7,9.5,1.5,14.3,2.3c-1.2,6.8-2.4,13.6-3.6,20.4
				c-4.5-0.8-9-1.5-13.5-2.2c-2.3-0.3-4.2-1.1-5.7-2.2c-1.5-1.1-2.6-2.5-3.2-4.1c-0.7-1.6-0.9-3.4-0.6-5.2c1.1-8,2.1-15.9,3.2-23.9
				c0.2-1.8,0.9-3.4,2.1-4.8s2.6-2.4,4.5-3.1s4-0.8,6.5-0.4c4.8,0.7,9.7,1.5,14.5,2.4c-1.4,5.6-2.8,11.2-4.1,16.8
				c-2.5-0.6-5-1.2-7.4-1.8c0.5-3,1-6,1.4-8.9c-0.2,0-0.4-0.1-0.7-0.1c-1.5-0.2-2.8-0.4-3.8-0.4c-1,0-1.7,0.1-2.2,0.4
				c-0.5,0.3-0.8,0.8-1,1.4s-0.4,1.5-0.5,2.6c-0.9,5.8-1.7,11.6-2.6,17.4c-0.4,2.6-0.1,4.4,0.7,5.4c0.8,0.9,2.3,1.5,4.5,1.9
				c0.1,0,0.1,0,0.2,0c0.4-2.4,0.8-4.7,1.1-7.1C229.4,40.3,228.6,40.2,227.9,40.2L227.9,40.2z"/>
			<path class="st0" d="M267.5,34.9c-2.5-0.7-4.9-1.4-7.4-2.1c0.6-3,1.2-6,1.9-9l-0.2,0c-0.5-0.1-1-0.2-1.4-0.3
				c-2-0.4-3.5-0.5-4.4-0.4c-0.9,0.2-1.5,1.1-1.9,2.7c-0.1,0.3-0.1,0.6-0.2,1c-0.1,0.4-0.2,0.8-0.3,1.2s-0.2,0.7-0.2,1
				c0,0.1-0.1,0.3-0.1,0.4c4.7,4.7,9.3,9.5,13.9,14.4c-0.6,2.7-1.2,5.5-1.8,8.2c-0.4,1.8-1.2,3.4-2.4,4.7s-2.7,2.2-4.5,2.8
				c-1.8,0.5-3.8,0.6-6.1,0.1c-4.4-0.9-8.7-1.7-13.1-2.5c0.9-5.2,1.9-10.4,2.8-15.5c2.4,0.6,4.9,1.2,7.3,1.9
				c-0.2,2.6-0.4,5.2-0.6,7.8c0.8,0.2,1.5,0.3,2.1,0.4c0.4,0.1,0.8,0.2,1.2,0.3c1,0.2,1.8,0.3,2.6,0.3c0.7,0,1.3-0.3,1.7-1
				c0.4-0.7,0.8-1.9,1.1-3.6c0-0.2,0.1-0.4,0.1-0.5c-4.5-4.8-9.1-9.6-13.9-14.3c0.6-3.1,1.1-6.2,1.7-9.4c0.3-1.8,1.1-3.4,2.3-4.7
				s2.7-2.3,4.6-2.9c1.9-0.6,4.1-0.6,6.5-0.1c4.5,0.9,9.1,1.9,13.6,2.9C270.7,23.8,269.1,29.4,267.5,34.9L267.5,34.9z"/>
		</g>
		<g>
			<path class="st0" d="M108.2,79.4c-3,0-5-2.1-5.1-5.1c0-0.1,0-0.2,0-0.3c0.2-2.2,1.6-4.6,5.3-4.8c0.1,0,0.3,0,0.3,0
				c2.9,0.1,4.9,2.1,5,5c-0.1,3-2.1,5-5.1,5.2C108.6,79.4,108.3,79.4,108.2,79.4L108.2,79.4z"/>
			<path class="st0" d="M114.9,81.1c-0.6,0-1.8-0.2-2.7-1.3c-1.5-1.7-2.4-3.4-2.7-5.1c0-0.1,0-0.2,0-0.2c-0.1-1.7,0.6-3.5,2.1-5.7
				c0.7-1,1.3-1.9,2-2.7c0-0.9,0.3-1.8,0.9-2.5c0,0-0.1,0-0.1,0c-0.9,0-3.1-0.3-4.2-3.4c-0.3-1-0.6-1.9-0.7-2.6
				c-0.3-1.6,0.4-3.5,2.7-4.3c6.3-2.2,12.7-3.5,19.1-3.7c0.5,0,1,0,1.5,0c4.9,0,8.5,1,10.9,3.2c1.4,1.3,2.2,2.8,2.5,4.6
				c0,0.2,0.1,0.4,0.1,0.5c0,3.9-2.7,7.1-8.2,9.6c-0.2,0.1-0.4,0.2-0.6,0.3c1.2,0.9,1.7,2.5,1.3,4.1c-0.9,2.9-3.3,6.5-9.4,7.6
				c-0.1,0-0.1,0-0.2,0c-0.4,0-0.7,0.1-1.1,0.1c-2.9,0-5.5-1.6-7.6-4.7c-0.2-0.2-0.3-0.5-0.5-0.7c-0.5,0.8-1,1.5-1.4,2.3
				c-0.1,0.3-0.2,0.5-0.2,0.6c0.1,0.4,0.1,0.9,0,1.3c-0.1,0.5-0.3,1-0.7,1.5l0,0C117,80.5,116,81,114.9,81.1L114.9,81.1z
				 M129.4,69.8c0.4,0.2,0.8,0.4,1.3,0.6c0.1-0.2,0.4-0.4,0.6-0.9C130.7,69.6,130,69.7,129.4,69.8z M131.6,59.2
				c-0.1,0.2-0.1,0.4-0.2,0.6c0.9-0.2,1.8-0.5,2.5-0.7C133.2,59.1,132.4,59.2,131.6,59.2L131.6,59.2z"/>
			<path class="st0" d="M140.6,79.2c-0.3,0-0.6,0-0.9-0.1c-0.1,0-0.2,0-0.3-0.1c-1.3-0.4-2.4-1.2-3.2-2.4l-0.2-0.2
				c-0.9-1.1-1.9-2.9-1.6-5.7c0.2-2.6,1.6-5.6,4.5-9.4l1.4-1.9c0.1-0.3,0.1-0.5,0.2-0.8c0.4-0.9,1.1-1.5,2.1-1.9l0,0
				c0.4-0.1,0.8-0.2,1.2-0.2c1.1,0,2,0.5,2.6,0.9c0.8,0.5,1.3,1.1,1.7,1.7c0.4-0.7,1.1-1.2,1.9-1.5c0.4-0.1,0.8-0.2,1.1-0.2
				c0.8,0,1.6,0.3,2.2,0.8c0.9,0.6,1.6,1.3,2.3,1.9c0.6,0.6,0.9,1.4,1.1,2.2h0c0.1,0,0.2,0.1,0.3,0.2c0.9,0.4,1.5,1.2,1.8,2.1
				c0.2,0.7,0.3,1.8-0.4,3c0,0.1-0.1,0.1-0.1,0.2c-2.9,4.1-5,7.2-6.2,9c-1,1.4-2.3,2.2-3.8,2.2c-0.1,0-0.1,0-0.2,0
				c-0.1,0-0.3,0-0.4,0c-0.9-0.1-1.7-0.4-2.5-0.8c-0.4-0.2-0.8-0.5-1.2-0.9c-0.1,0.1-0.1,0.2-0.2,0.2c-0.1,0.1-0.1,0.2-0.2,0.3
				C142.8,78.7,141.7,79.2,140.6,79.2L140.6,79.2z"/>
			<path class="st0" d="M153.8,79.4c-0.2,0-0.4,0-0.5,0c-0.7-0.1-1.4-0.4-2.1-1c-0.1-0.1-0.1-0.1-0.2-0.2c-0.7-0.7-1.2-1.4-1.5-2.1
				c-0.3-0.6-0.4-1.3-0.4-2.1c0-0.9,0.2-1.8,0.6-2.8l0,0c-0.9-1.2-0.9-2.8-0.1-4.1c0.1-0.1,0.1-0.2,0.2-0.3c1.5-1.9,3.7-4.6,6.6-8.2
				c0.7-1,1.8-1.5,2.9-1.5c0.6,0,1.2,0.2,1.8,0.5c0.3,0.2,0.8,0.5,1.3,0.8c0.3,0.2,0.6,0.4,0.8,0.6c0.9-1.2,1.9-1.6,2.8-1.7
				c0.2,0,0.3,0,0.5,0c0.9,0,1.9,0.4,2.7,1.1c1,0.9,1.6,1.5,2.1,2c0.6,0.7,1,1.6,1,2.6c0,0.1,0,0.2,0,0.3c0.6,0.3,1.1,0.8,1.4,1.4
				c0.5,1.1,0.5,2.3-0.1,3.4c-0.1,0.1-0.1,0.2-0.2,0.3c-3.2,4.7-5.3,7.7-6.6,9.1c-1.4,1.6-2.8,1.9-3.8,1.9c-1.4,0-2.5-0.8-3.3-1.4
				l-0.8-0.6c-0.5-0.4-0.9-0.8-1.2-1.2l0,0.1c-0.2,0.2-0.3,0.4-0.4,0.5c-0.3,1.3-1.3,2.4-2.7,2.7C154.3,79.4,154,79.4,153.8,79.4
				L153.8,79.4z"/>
			<path class="st1" d="M110.5,74.2c0,1.2-0.7,1.8-2.1,1.9c-1.3,0.1-2-0.6-2-1.9c0.1-1.1,0.8-1.7,2.3-1.8
				C109.9,72.4,110.5,73,110.5,74.2L110.5,74.2z"/>
			<path class="st1" d="M142.9,57.8c0,2.5-2.1,4.7-6.3,6.6c-3.7,1.6-8.3,2.6-13.8,2.8c1.8,3.5,4.4,5.7,7.7,6.5
				c1.5,0.2,2.9-0.9,4-3.3c0.1-0.3,0.3-0.4,0.7-0.3c0.3,0.1,0.4,0.4,0.3,0.8c-0.9,2.9-3.2,4.6-6.9,5.2c-0.2,0-0.4,0-0.7,0
				c-1.8,0-3.4-1.1-4.9-3.3c-0.9-1.4-1.8-3.1-2.6-4.9c-2.1,2.4-3.7,4.7-4.9,6.9c-0.4,0.9-0.6,1.6-0.6,2.2c0,0.2,0,0.3,0.1,0.4
				c0.1,0.1,0.1,0.2,0,0.2c-0.1,0.1-0.2,0.1-0.3-0.1c-1.2-1.3-1.8-2.5-1.9-3.5c-0.1-0.9,0.4-2.1,1.5-3.6s2-2.8,2.9-3.8
				c-0.2-0.2-0.4-0.4-0.4-0.7c0-0.3,0.2-0.6,0.7-0.9c0.2-0.1,0.5-0.2,0.9-0.5s0.8-0.5,1.1-0.8l5.9-7.1c0,0-0.1,0-0.1-0.1
				c-4,0.9-7.1,1.8-9.3,2.6c-0.1,0.1,0.1,0.2,0.5,0.3c0.2,0.1,0.3,0.2,0.4,0.2c0,0.1-0.2,0.2-0.5,0.2l-1.9,0.2
				c-0.5,0.1-1-0.3-1.3-1.2c-0.3-0.8-0.4-1.5-0.5-2c-0.1-0.3,0.1-0.6,0.6-0.8c6-2.1,12-3.3,18-3.5c4.8-0.2,8.2,0.6,10.1,2.3
				C142.2,55.8,142.7,56.7,142.9,57.8L142.9,57.8z M141.7,57.6c-0.7-1.2-3.1-1.8-7-1.8c-2.2,0-4.8,0.2-7.8,0.6
				c0.2,0.1,0.7,0.5,1.2,1c0.2,0.2,0.3,0.5,0.3,0.7c0,0.1-0.1,0.3-0.2,0.4l-4.7,5.8c3.2-0.3,6-0.8,8.4-1.4
				C137.8,61.6,141,59.8,141.7,57.6L141.7,57.6z"/>
			<path class="st1" d="M155.5,65.4c0.2,0.1,0.2,0.3,0,0.5c-3,4.2-5.1,7.2-6.3,9.2c-0.3,0.5-0.7,0.7-1.2,0.8
				c-0.5-0.1-0.9-0.2-1.2-0.4c-0.9-0.5-1.4-1.4-1.6-2.6c-0.1-0.5,0-1,0-1.5c0.1-0.9,0.4-1.8,0.9-2.9l-0.1,0c-2.2,3.6-3.8,6-4.7,7.2
				c-0.3,0.3-0.6,0.4-1,0.3c-0.6-0.2-1-0.5-1.4-1.1l-0.3-0.5c-0.8-0.9-1.1-2-1-3.4c0.1-1.9,1.4-4.4,3.9-7.7l1.9-2.5
				c0.1-0.2,0.2-0.4,0.2-0.6c-0.1-0.1,0-0.2,0.2-0.3c0.1-0.1,0.4,0,0.9,0.3c0.8,0.6,1.3,1.3,1.5,2.1c0.1,0.5-0.1,0.9-0.5,1.4
				c-2.3,2.2-4,4.8-5.1,7.8c-0.4,1.1-0.5,1.9-0.4,2.5c0,0,0,0,0.1,0L150.8,61c0-0.2,0.1-0.3,0.2-0.3c0.1,0,0.2,0,0.3,0.1
				c0.8,0.5,1.4,1,1.9,1.6c0.2,0.2,0.2,0.4,0.2,0.8c-0.1,0.4-0.3,0.8-0.7,1.2c-0.6,0.9-1.3,1.7-1.9,2.5c-2.1,2.9-3.1,5.1-2.9,6.7
				l0,0c3.1-3.1,5.5-5.7,7.1-7.9C155.2,65.4,155.3,65.4,155.5,65.4L155.5,65.4z"/>
			<path class="st1" d="M170.7,66.4c-3.1,4.6-5.2,7.5-6.4,8.9c-0.4,0.5-0.9,0.8-1.3,0.8c-0.3,0-0.7-0.2-1.3-0.7l-1-0.7
				c-0.6-0.4-0.9-1.1-0.9-1.9c0-0.8,0.3-1.7,0.9-2.9c0.5-1.1,1.3-2.5,2.5-4.4l-0.1-0.1c-4,4.1-6.7,7-8.1,8.7c-0.6,0.8-1,1.3-1,1.5
				c-0.1,0.1-0.1,0.2-0.1,0.3s-0.1,0.2-0.2,0.2c-0.2,0-0.3-0.1-0.5-0.2c-0.4-0.4-0.7-0.8-0.8-1.1c-0.1-0.2-0.2-0.5-0.2-0.8
				c0-0.4,0.1-0.9,0.3-1.4l4.7-8.4l0,0l-2.1,2.3c-0.7,0.8-1.5,1.8-2.4,2.9c-0.2,0.1-0.4,0.2-0.5,0c-0.2-0.1-0.2-0.3,0-0.6
				c1.5-1.9,3.7-4.7,6.7-8.3c0.1-0.2,0.3-0.3,0.5-0.1c0.3,0.2,0.7,0.4,1.2,0.7c0.5,0.3,0.8,0.6,1,0.9c0.3,0.3,0.4,0.7,0.1,1.2
				c-1.6,2.7-2.7,4.4-3.2,5.1c0,0.1,0.1,0.1,0.2,0.1c2-1.8,3.7-3.7,5.3-5.5l1.7-1.9c0.2-0.4,0.5-0.6,0.7-0.6c0.1-0.1,0.3,0,0.6,0.2
				c0.9,0.8,1.5,1.4,1.8,1.8c0.1,0.1,0.2,0.3,0.2,0.5s-0.1,0.4-0.2,0.6c-3.8,4.6-6,8.1-6.8,10.6c0.1,0,0.2,0,0.2,0
				c0.9,0,3.5-2.6,7.9-7.9c0.1-0.2,0.2-0.2,0.4-0.2C170.7,66,170.8,66.1,170.7,66.4L170.7,66.4z"/>
		</g>
	</g>
</g>
</svg>
